<svg width="60" height="60" viewBox="0 0 60 60" fill="none" xmlns="http://www.w3.org/2000/svg">
<path d="M17.5 35.2775H22.05V37.7775H17.5V35.2775Z" fill="#2F362F"/>
<path d="M17.5 33.5525H22.05V36.0525H17.5V33.5525Z" fill="#2F362F"/>
<path d="M17.5 31.8275H22.05V34.3275H17.5V31.8275Z" fill="#2F362F"/>
<path d="M17.5 30.1025H22.05V32.6025H17.5V30.1025Z" fill="#2F362F"/>
<path d="M17.5 28.3775H22.05V30.8775H17.5V28.3775ZM22.6025 35.2775H27.1525V37.7775H22.6025V35.2775Z" fill="#2F362F"/>
<path d="M22.6025 33.5525H27.1525V36.0525H22.6025V33.5525Z" fill="#2F362F"/>
<path d="M22.6025 31.8275H27.1525V34.3275H22.6025V31.8275ZM27.705 35.2775H32.255V37.7775H27.705V35.2775Z" fill="#2F362F"/>
<path d="M27.7051 33.5525H32.2551V36.0525H27.7051V33.5525Z" fill="#2F362F"/>
<path d="M27.7051 31.8275H32.2551V34.3275H27.7051V31.8275Z" fill="#2F362F"/>
<path d="M27.7051 30.1025H32.2551V32.6025H27.7051V30.1025Z" fill="#2F362F"/>
<path d="M27.7051 28.3775H32.2551V30.8775H27.7051V28.3775Z" fill="#2F362F"/>
<path d="M27.7051 26.65H32.2551V29.15H27.7051V26.65Z" fill="#2F362F"/>
<path d="M27.7051 24.925H32.2551V27.425H27.7051V24.925ZM32.8076 35.2775H37.3601V37.7775H32.8076V35.2775Z" fill="#2F362F"/>
<path d="M32.8076 33.5525H37.3601V36.0525H32.8076V33.5525Z" fill="#2F362F"/>
<path d="M32.8076 31.8275H37.3601V34.3275H32.8076V31.8275Z" fill="#2F362F"/>
<path d="M32.8076 30.1025H37.3601V32.6025H32.8076V30.1025Z" fill="#2F362F"/>
<path d="M32.8076 28.3775H37.3601V30.8775H32.8076V28.3775ZM37.9101 35.2775H42.4601V37.7775H37.9101V35.2775Z" fill="#2F362F"/>
<path d="M37.9102 33.5525H42.4602V36.0525H37.9102V33.5525Z" fill="#2F362F"/>
<path d="M37.9102 31.8275H42.4602V34.3275H37.9102V31.8275Z" fill="#2F362F"/>
<path d="M37.9102 30.1025H42.4602V32.6025H37.9102V30.1025Z" fill="#2F362F"/>
<path d="M37.9102 28.375H42.4602V30.875H37.9102V28.375Z" fill="#2F362F"/>
<path d="M37.9102 26.65H42.4602V29.15H37.9102V26.65Z" fill="#2F362F"/>
<path d="M37.9102 24.925H42.4602V27.425H37.9102V24.925Z" fill="#2F362F"/>
<path d="M37.9102 23.2H42.4602V25.7H37.9102V23.2Z" fill="#2F362F"/>
<path d="M15 10C13.6739 10 12.4021 10.5268 11.4645 11.4645C10.5268 12.4021 10 13.6739 10 15V45C10 46.3261 10.5268 47.5979 11.4645 48.5355C12.4021 49.4732 13.6739 50 15 50H45C46.3261 50 47.5979 49.4732 48.5355 48.5355C49.4732 47.5979 50 46.3261 50 45V15C50 13.6739 49.4732 12.4021 48.5355 11.4645C47.5979 10.5268 46.3261 10 45 10H15ZM15 5H45C47.6522 5 50.1957 6.05357 52.0711 7.92893C53.9464 9.8043 55 12.3478 55 15V45C55 47.6522 53.9464 50.1957 52.0711 52.0711C50.1957 53.9464 47.6522 55 45 55H15C12.3478 55 9.8043 53.9464 7.92893 52.0711C6.05357 50.1957 5 47.6522 5 45V15C5 12.3478 6.05357 9.8043 7.92893 7.92893C9.8043 6.05357 12.3478 5 15 5V5Z" fill="#2F362F"/>
</svg>
