<svg width="60" height="60" viewBox="0 0 60 60" fill="none" xmlns="http://www.w3.org/2000/svg">
<path d="M17 16H24.1052V23.1052H17V16Z" stroke="#2F362F" stroke-width="3" stroke-linecap="round" stroke-linejoin="round"/>
<path d="M17 36.7993H24.1052V43.9045H17V36.7993Z" stroke="#2F362F" stroke-width="3" stroke-linecap="round" stroke-linejoin="round"/>
<path d="M36.8311 16H43.9363V23.1052H36.8311V16Z" stroke="#2F362F" stroke-width="3" stroke-linecap="round" stroke-linejoin="round"/>
<path d="M39.3594 35.7683L43.9437 40.3527L39.3594 44.9373" stroke="#2F362F" stroke-width="3" stroke-linecap="round" stroke-linejoin="round"/>
<path d="M43.9434 40.3463H24.105" stroke="#2F362F" stroke-width="3" stroke-linecap="round" stroke-linejoin="round"/>
<path d="M36.8322 19.5481H24.0986" stroke="#2F362F" stroke-width="3" stroke-linecap="round" stroke-linejoin="round"/>
<path d="M37.7496 23.1441L24.1011 36.7925" stroke="#2F362F" stroke-width="3" stroke-linecap="round" stroke-linejoin="round"/>
<path d="M15 10C13.6739 10 12.4021 10.5268 11.4645 11.4645C10.5268 12.4021 10 13.6739 10 15V45C10 46.3261 10.5268 47.5979 11.4645 48.5355C12.4021 49.4732 13.6739 50 15 50H45C46.3261 50 47.5979 49.4732 48.5355 48.5355C49.4732 47.5979 50 46.3261 50 45V15C50 13.6739 49.4732 12.4021 48.5355 11.4645C47.5979 10.5268 46.3261 10 45 10H15ZM15 5H45C47.6522 5 50.1957 6.05357 52.0711 7.92893C53.9464 9.8043 55 12.3478 55 15V45C55 47.6522 53.9464 50.1957 52.0711 52.0711C50.1957 53.9464 47.6522 55 45 55H15C12.3478 55 9.8043 53.9464 7.92893 52.0711C6.05357 50.1957 5 47.6522 5 45V15C5 12.3478 6.05357 9.8043 7.92893 7.92893C9.8043 6.05357 12.3478 5 15 5V5Z" fill="#2F362F"/>
</svg>
