<svg width="60" height="60" viewBox="0 0 60 60" fill="none" xmlns="http://www.w3.org/2000/svg">
<path d="M17.56 36.6375H27.36V41.355H17.56V36.6375ZM32.2625 36.6375H42.0575V41.355H32.2625V36.6375ZM17.5525 27.2025H42.0575V31.92H17.5525V27.2025ZM17.56 17.7675H32.2625V22.485H17.56V17.7675ZM37.1625 17.7675H42.0625V22.485H37.1625V17.7675Z" fill="#2F362F"/>
<path d="M15 10C13.6739 10 12.4021 10.5268 11.4645 11.4645C10.5268 12.4021 10 13.6739 10 15V45C10 46.3261 10.5268 47.5979 11.4645 48.5355C12.4021 49.4732 13.6739 50 15 50H45C46.3261 50 47.5979 49.4732 48.5355 48.5355C49.4732 47.5979 50 46.3261 50 45V15C50 13.6739 49.4732 12.4021 48.5355 11.4645C47.5979 10.5268 46.3261 10 45 10H15ZM15 5H45C47.6522 5 50.1957 6.05357 52.0711 7.92893C53.9464 9.8043 55 12.3478 55 15V45C55 47.6522 53.9464 50.1957 52.0711 52.0711C50.1957 53.9464 47.6522 55 45 55H15C12.3478 55 9.8043 53.9464 7.92893 52.0711C6.05357 50.1957 5 47.6522 5 45V15C5 12.3478 6.05357 9.8043 7.92893 7.92893C9.8043 6.05357 12.3478 5 15 5V5Z" fill="#2F362F"/>
</svg>
